<svg xmlns="http://www.w3.org/2000/svg" xmlns:xlink="http://www.w3.org/1999/xlink" viewBox="0 0 170.4 196.7"><defs><style>.cls-1{fill:none;}.cls-2{clip-path:url(#clip-path);}.cls-3,.cls-5,.cls-6,.cls-8{fill-rule:evenodd;}.cls-3{fill:url(#linear-gradient);}.cls-4{fill:#666;}.cls-5{fill:url(#linear-gradient-2);}.cls-6{fill:url(#linear-gradient-3);}.cls-7{fill:#f99b52;}.cls-8{fill:url(#linear-gradient-4);}.cls-9{fill:url(#linear-gradient-5);}.cls-10{fill:url(#linear-gradient-6);}</style><clipPath id="clip-path"><rect class="cls-1" width="170.3" height="196.7"/></clipPath><linearGradient id="linear-gradient" x1="118.92" y1="942.04" x2="-45.11" y2="592.2" gradientTransform="matrix(1, 0, 0, -1, 0, 902.22)" gradientUnits="userSpaceOnUse"><stop offset="0.15" stop-color="#2b0aff"/><stop offset="0.59" stop-color="#e40df2"/><stop offset="0.78" stop-color="#f99b52"/></linearGradient><linearGradient id="linear-gradient-2" x1="128.69" y1="921.71" x2="-29.54" y2="731.55" gradientTransform="matrix(1, 0, 0, -1, 0, 902.22)" gradientUnits="userSpaceOnUse"><stop offset="0" stop-color="#f99b52"/><stop offset="0.52" stop-color="#ff5b8a"/><stop offset="1" stop-color="#2b0aff"/></linearGradient><linearGradient id="linear-gradient-3" x1="149.61" y1="750.49" x2="127.83" y2="814.36" xlink:href="#linear-gradient-2"/><linearGradient id="linear-gradient-4" x1="24.3" y1="758.22" x2="146" y2="758.22" xlink:href="#linear-gradient-2"/><linearGradient id="linear-gradient-5" x1="161.19" y1="915.79" x2="107.48" y2="696.6" gradientTransform="matrix(1, 0, 0, -1, 0, 902.22)" gradientUnits="userSpaceOnUse"><stop offset="0.15" stop-color="#2b0aff"/><stop offset="0.59" stop-color="#e40df2"/><stop offset="0.78" stop-color="#f6846d"/></linearGradient><linearGradient id="linear-gradient-6" x1="83.25" y1="812.67" x2="261.8" y2="938.96" gradientTransform="matrix(1, 0, 0, -1, 0, 902.22)" gradientUnits="userSpaceOnUse"><stop offset="0" stop-color="#2b0aff"/><stop offset="0.45" stop-color="#e93abf"/><stop offset="1" stop-color="#ff6c98"/></linearGradient></defs><g id="Layer_2" data-name="Layer 2"><g id="Grad_Mark" data-name="Grad Mark"><g class="cls-2"><path class="cls-3" d="M24.3,63.2,109.5,14,85.2,0,0,49.2v98.3l85.2,49.2V168.6L24.3,133.4Z"/><path class="cls-4" d="M85.2,98.3v28.1L146,91.3v42.1L85.2,168.5v28.1l85.2-49.2V49.2Z"/><path class="cls-5" d="M24.3,63.2v70.2l24.4-14V77.3l60.8-35.2V14Z"/><path class="cls-6" d="M121.6,105.4v14l24.4,14V91.3Z"/><path class="cls-7" d="M60.8,84.3v28.1l24.3,14V98.3Z"/><path class="cls-8" d="M24.3,133.4l60.9,35.2L146,133.4l-24.4-14L85.2,140.5,48.7,119.4Z"/><path class="cls-9" d="M85.2,98.3v28.1L146,91.3v42.1L85.2,168.6v28.1l85.1-49.2V49.2Z"/><path class="cls-10" d="M60.8,84.3l24.3,14,85.2-49.2L146,35.1Z"/></g></g></g></svg>